HIERARCHY
ROOT Hips
{
  OFFSET 43.0842 91.1655 101.099
  CHANNELS 6 Xposition Yposition Zposition Zrotation Xrotation Yrotation
  JOINT LeftUpLeg
  {
    OFFSET 8.64259 1.95398 -2.38835
    CHANNELS 3 Zrotation Xrotation Yrotation
    JOINT LeftLeg
    {
      OFFSET 43.7702 0 0
      CHANNELS 3 Zrotation Xrotation Yrotation
      JOINT LeftFoot
      {
        OFFSET 40.6238 0 0
        CHANNELS 3 Zrotation Xrotation Yrotation
        JOINT LeftToeBase
        {
          OFFSET 12.7242 0 0
          CHANNELS 3 Zrotation Xrotation Yrotation
          End Site
          {
            OFFSET 0 0 0
          }
        }
      }
    }
  }
  JOINT RightUpLeg
  {
    OFFSET -8.2249 1.95398 -2.59336
    CHANNELS 3 Zrotation Xrotation Yrotation
    JOINT RightLeg
    {
      OFFSET 43.5653 0 0
      CHANNELS 3 Zrotation Xrotation Yrotation
      JOINT RightFoot
      {
        OFFSET 40.6238 0 0
        CHANNELS 3 Zrotation Xrotation Yrotation
        JOINT RightToeBase
        {
          OFFSET 12.7242 0 0
          CHANNELS 3 Zrotation Xrotation Yrotation
          End Site
          {
            OFFSET 0 0 0
          }
        }
      }
    }
  }
  JOINT Spine
  {
    OFFSET 0.165834 0.87714 6.61349
    CHANNELS 3 Zrotation Xrotation Yrotation
    JOINT Spine1
    {
      OFFSET 7.38963 1.71661e-005 0
      CHANNELS 3 Zrotation Xrotation Yrotation
      JOINT Spine2
      {
        OFFSET 11.9445 1.14441e-005 0
        CHANNELS 3 Zrotation Xrotation Yrotation
        JOINT Spine3
        {
          OFFSET 14.7254 4.19617e-005 0
          CHANNELS 3 Zrotation Xrotation Yrotation
          JOINT Spine4
          {
            OFFSET 10.9679 0 0
            CHANNELS 3 Zrotation Xrotation Yrotation
            JOINT RightShoulder
            {
              OFFSET 2.46616 -1.6653 3.69651
              CHANNELS 3 Zrotation Xrotation Yrotation
              JOINT RightArm
              {
                OFFSET 13.0012 0 0
                CHANNELS 3 Zrotation Xrotation Yrotation
                JOINT RightForeArm
                {
                  OFFSET 28.7848 1.52588e-005 0
                  CHANNELS 3 Zrotation Xrotation Yrotation
                  JOINT RightHand
                  {
                    OFFSET 26.5688 1.52588e-005 0
                    CHANNELS 3 Zrotation Xrotation Yrotation
                    End Site
                    {
                      OFFSET 0 0 0
                    }
                  }
                }
              }
            }
            JOINT LeftShoulder
            {
              OFFSET 2.38034 -1.29275 -3.7523
              CHANNELS 3 Zrotation Xrotation Yrotation
              JOINT LeftArm
              {
                OFFSET 16.3182 6.10351e-005 0
                CHANNELS 3 Zrotation Xrotation Yrotation
                JOINT LeftForeArm
                {
                  OFFSET 27.0901 0 0
                  CHANNELS 3 Zrotation Xrotation Yrotation
                  JOINT LeftHand
                  {
                    OFFSET 24.5451 1.52588e-005 0
                    CHANNELS 3 Zrotation Xrotation Yrotation
                    End Site
                    {
                      OFFSET 0 0 0
                    }
                  }
                }
              }
            }
            JOINT Neck
            {
              OFFSET 5.0226 -0.0266342 0
              CHANNELS 3 Zrotation Xrotation Yrotation
              JOINT Head
              {
                OFFSET 6.69364 2.86102e-005 0
                CHANNELS 3 Zrotation Xrotation Yrotation
                End Site
                {
                  OFFSET 0 0 0
                }
              }
            }
          }
        }
      }
    }
  }
}
MOTION
Frames:	6
Frame Time:	0.0333333
68.057 90.9691 27.081 104.252 -58.0514 106.375 -168.938 15.2712 88.5015 -36.8513 23.2968 -9.04687 65.2817 6.20761 22.8457 32.1377 1.28967 5.22826 171.216 -0.578304 91.9671 -68.0375 -3.13221 -4.52462 57.4913 5.45995 -6.50648 34.124 0.0349983 -9.60334 -0.844785 6.43459 -88.2432 14.0088 -0.815203 3.63614 2.33301 -0.654487 3.66843 -20.1708 -1.86982 3.22377 -0.158144 -1.86982 3.22377 96.0769 -48.0842 -91.6884 36.43 8.50546 -45.4892 -35.2276 -3.77551 -123.467 -13.6399 -2.4138 10.9572 -111.213 -59.3753 52.621 17.3743 23.8729 -61.4682 12.4274 1.54614 -51.0797 13.775 1.99732 -6.71161 -15.2297 -4.96415 -14.8015 -5.62829 -4.91091 -0.648906 
68.94 90.9878 24.8952 114.911 -71.9668 115.953 -167.914 15.1737 87.3379 -34.1319 17.0331 -11.3702 64.8061 4.20577 25.2747 31.5421 -0.352787 6.4983 173.669 -1.72534 87.6298 -66.4969 -4.95951 -7.25886 57.4658 5.65244 -8.10445 33.2073 0.651273 -9.60062 -0.715193 6.4891 -88.8788 13.9024 -0.870989 2.36002 2.22961 -0.766295 2.39604 -20.2951 -1.53988 1.98937 -0.282412 -1.53987 1.98938 95.6912 -46.7679 -92.4774 33.4468 -1.44407 -54.7189 -32.3348 -6.07214 -122.467 -13.6632 -2.42912 10.3237 -109.593 -58.4981 54.318 16.2836 14.5438 -61.8032 13.4532 -3.94273 -52.4049 11.8894 1.90182 -7.44756 -13.2701 -4.09442 -8.90866 -6.00823 -3.92149 0.970956 
69.9937 91.3317 22.7984 167.096 -82.3269 168.49 -166.841 15.0877 87.9846 -31.2817 9.96476 -13.0723 64.2811 2.14732 27.4543 30.6595 -2.08667 7.17282 174.469 1.56789 83.4519 -63.9148 -5.55082 -8.64643 58.0747 4.72631 -7.85684 32.5714 1.12897 -9.73166 -0.464725 6.75211 -89.5354 13.3693 -0.697489 1.01847 1.69805 -0.651995 1.04817 -20.8364 -0.971313 0.761775 -0.823726 -0.971313 0.761778 95.5745 -45.5594 -92.8337 28.1932 -8.95091 -62.6458 -28.4974 -7.44497 -119.685 -15.7734 -3.20238 10.9736 -106.285 -56.1575 57.678 13.2325 3.78406 -59.8357 13.7029 -6.75637 -54.862 11.0594 1.84664 -7.51863 -13.5478 -2.66393 -4.11736 -3.95194 -2.57118 3.1704 
70.984 92.0444 21.0084 -120.381 -76.0867 -117.986 -166.266 15.5105 89.7597 -29.1866 3.76289 -14.071 63.5827 -0.727544 28.2662 30.3065 -3.16184 7.95845 173.686 4.94293 80.23 -59.8614 -7.21631 -8.34541 56.6834 5.19954 -5.777 31.7973 2.27707 -11.4228 -0.241774 7.03831 -90.0258 12.7979 -0.49246 0.0067195 1.12708 -0.491686 0.0283785 -21.4088 -0.471706 -0.141603 -1.3962 -0.471705 -0.141602 96.2013 -44.3118 -91.9723 23.7629 -15.0159 -69.0962 -22.8653 -9.05704 -115.871 -17.2394 -3.73432 10.5205 -102.695 -52.8723 61.266 9.87895 -8.3971 -55.0839 14.477 -3.62523 -57.5253 13.8942 1.97707 -6.31222 -16.059 -0.699635 -2.17855 -0.234276 -0.421323 8.1772 
71.4576 92.9622 19.6274 -104.888 -64.9737 -101.155 -163.881 17.5091 92.8283 -30.5004 3.22149 -14.5448 61.8415 -4.40556 27.0537 31.0809 -3.17832 9.65751 172.204 7.63517 78.8015 -53.0385 -7.79534 -6.75278 52.0512 7.77145 0.463874 32.1504 2.36087 -12.3429 -0.187893 7.30439 -90.4502 12.2611 -0.586645 -0.832471 0.589968 -0.622724 -0.805855 -21.9433 -0.309354 -0.970288 -1.93068 -0.309346 -0.970282 96.2648 -41.5929 -92.2399 20.5262 -20.1126 -73.8516 -18.5588 -9.51918 -112.772 -17.4943 -3.79466 9.34377 -101.368 -51.826 62.728 11.4935 -21.7412 -46.7202 13.6479 0.705378 -60.7078 17.4686 2.28462 -6.20357 -18.8222 1.02 3.79084 2.62633 1.68957 9.56865 
71.2491 93.3842 17.9686 -98.4095 -55.1159 -93.9518 -160.003 23.6788 96.0425 -37.7642 8.65012 -13.5221 58.6986 -8.16773 22.5024 31.9735 -4.12202 12.8745 171.352 9.43748 78.851 -45.5735 -6.97317 -4.84763 49.5145 9.31266 5.24073 37.8757 -1.65096 -12.3949 -0.178069 7.51036 -90.6131 11.848 -0.642463 -1.15257 0.176757 -0.692549 -1.1232 -22.3545 -0.266404 -1.29235 -2.3419 -0.266394 -1.29236 96.0711 -39.8501 -92.8294 17.1582 -23.2519 -76.145 -16.3084 -8.73107 -112.365 -17.4842 -3.78598 9.15417 -100.418 -51.1779 63.8375 18.5249 -30.0817 -36.3132 11.5564 0.407971 -61.433 19.3331 2.46684 -6.76235 -20.2636 2.90528 7.98945 5.09279 4.10347 10.5479 
